<svg width="244" height="46" viewBox="0 0 244 46" fill="none" xmlns="http://www.w3.org/2000/svg">
<path d="M22.9997 0C35.7026 0 45.9997 10.2971 45.9997 23V39.1C45.9997 40.93 45.2728 42.685 43.9788 43.979C42.6848 45.273 40.9297 46 39.0997 46H24.1497V35.9099C24.1497 33.6076 24.29 31.2225 25.4975 29.2629C26.362 27.8586 27.5185 26.6566 28.8884 25.7385C30.2583 24.8204 31.8096 24.2077 33.4371 23.9419L33.8776 23.8706C34.0592 23.8085 34.2168 23.6912 34.3284 23.5351C34.44 23.379 34.5 23.1919 34.5 23C34.5 22.8081 34.44 22.621 34.3284 22.4649C34.2168 22.3088 34.0592 22.1915 33.8776 22.1294L33.4371 22.0581C31.0591 21.6697 28.8632 20.5441 27.1594 18.8403C25.4556 17.1365 24.3301 14.9406 23.9416 12.5626L23.8703 12.1222C23.8082 11.9406 23.6909 11.7829 23.5348 11.6713C23.3787 11.5597 23.1916 11.4997 22.9997 11.4997C22.8078 11.4997 22.6208 11.5597 22.4647 11.6713C22.3086 11.7829 22.1913 11.9406 22.1292 12.1222L22.0579 12.5626C21.7922 14.1902 21.1795 15.7415 20.2614 17.1114C19.3433 18.4814 18.1412 19.6378 16.7368 20.5022C14.7772 21.7097 12.3921 21.85 10.0898 21.85H0.0273438C0.628794 9.68185 10.6832 0 22.9997 0Z" fill="#6F42C1"/>
<path d="M0 24.15H10.0901C12.3924 24.15 14.7775 24.2903 16.7371 25.4978C18.2689 26.4417 19.5583 27.7311 20.5022 29.2629C21.7097 31.2225 21.85 33.6076 21.85 35.9099V46H6.9C5.07001 46 3.31496 45.273 2.02096 43.979C0.726962 42.685 0 40.93 0 39.1L0 24.15ZM46 2.3C46 2.91 45.7577 3.49501 45.3263 3.92635C44.895 4.35768 44.31 4.6 43.7 4.6C43.09 4.6 42.505 4.35768 42.0737 3.92635C41.6423 3.49501 41.4 2.91 41.4 2.3C41.4 1.69 41.6423 1.10499 42.0737 0.673654C42.505 0.242321 43.09 0 43.7 0C44.31 0 44.895 0.242321 45.3263 0.673654C45.7577 1.10499 46 1.69 46 2.3Z" fill="#6F42C1"/>
<path d="M62.848 37V33.226H69.07C70.1807 33.226 71.042 32.886 71.654 32.206C72.2887 31.526 72.606 30.7213 72.606 29.792C72.606 29.1573 72.47 28.5793 72.198 28.058C71.926 27.5367 71.518 27.1287 70.974 26.834C70.4527 26.5167 69.818 26.358 69.07 26.358H62.848V22.618H68.56C69.512 22.618 70.2713 22.38 70.838 21.904C71.4273 21.428 71.722 20.714 71.722 19.762C71.722 18.7873 71.4273 18.062 70.838 17.586C70.2713 17.11 69.512 16.872 68.56 16.872H62.848V13.098H69.104C70.6907 13.098 72.0167 13.3927 73.082 13.982C74.17 14.5487 74.986 15.308 75.53 16.26C76.074 17.1893 76.346 18.2093 76.346 19.32C76.346 20.68 75.9267 21.8587 75.088 22.856C74.272 23.8307 73.0707 24.556 71.484 25.032L71.688 23.536C73.456 24.0347 74.816 24.862 75.768 26.018C76.7427 27.1513 77.23 28.5227 77.23 30.132C77.23 31.4013 76.9127 32.5573 76.278 33.6C75.666 34.62 74.7593 35.4473 73.558 36.082C72.3793 36.694 70.94 37 69.24 37H62.848ZM59.448 37V13.098H64.038V37H59.448ZM88.1392 37.34C86.4846 37.34 84.9886 36.966 83.6512 36.218C82.3366 35.4473 81.2826 34.416 80.4892 33.124C79.7186 31.8093 79.3332 30.3473 79.3332 28.738C79.3332 27.1287 79.7186 25.6893 80.4892 24.42C81.2599 23.128 82.3139 22.108 83.6512 21.36C84.9886 20.5893 86.4732 20.204 88.1052 20.204C89.7826 20.204 91.2786 20.5893 92.5932 21.36C93.9306 22.108 94.9846 23.128 95.7552 24.42C96.5259 25.6893 96.9112 27.1287 96.9112 28.738C96.9112 30.3473 96.5259 31.8093 95.7552 33.124C94.9846 34.416 93.9306 35.4473 92.5932 36.218C91.2786 36.966 89.7939 37.34 88.1392 37.34ZM88.1052 33.192C88.9439 33.192 89.6806 33.0107 90.3152 32.648C90.9726 32.2627 91.4712 31.7413 91.8112 31.084C92.1739 30.404 92.3552 29.6333 92.3552 28.772C92.3552 27.9107 92.1739 27.1513 91.8112 26.494C91.4486 25.8367 90.9499 25.3267 90.3152 24.964C89.6806 24.5787 88.9439 24.386 88.1052 24.386C87.2892 24.386 86.5639 24.5787 85.9292 24.964C85.2946 25.3267 84.7959 25.8367 84.4332 26.494C84.0706 27.1513 83.8892 27.9107 83.8892 28.772C83.8892 29.6333 84.0706 30.404 84.4332 31.084C84.7959 31.7413 85.2946 32.2627 85.9292 32.648C86.5639 33.0107 87.2892 33.192 88.1052 33.192ZM107.497 37.34C105.842 37.34 104.346 36.966 103.009 36.218C101.694 35.4473 100.64 34.416 99.8466 33.124C99.076 31.8093 98.6906 30.3473 98.6906 28.738C98.6906 27.1287 99.076 25.6893 99.8466 24.42C100.617 23.128 101.671 22.108 103.009 21.36C104.346 20.5893 105.831 20.204 107.463 20.204C109.14 20.204 110.636 20.5893 111.951 21.36C113.288 22.108 114.342 23.128 115.113 24.42C115.883 25.6893 116.269 27.1287 116.269 28.738C116.269 30.3473 115.883 31.8093 115.113 33.124C114.342 34.416 113.288 35.4473 111.951 36.218C110.636 36.966 109.151 37.34 107.497 37.34ZM107.463 33.192C108.301 33.192 109.038 33.0107 109.673 32.648C110.33 32.2627 110.829 31.7413 111.169 31.084C111.531 30.404 111.713 29.6333 111.713 28.772C111.713 27.9107 111.531 27.1513 111.169 26.494C110.806 25.8367 110.307 25.3267 109.673 24.964C109.038 24.5787 108.301 24.386 107.463 24.386C106.647 24.386 105.921 24.5787 105.287 24.964C104.652 25.3267 104.153 25.8367 103.791 26.494C103.428 27.1513 103.247 27.9107 103.247 28.772C103.247 29.6333 103.428 30.404 103.791 31.084C104.153 31.7413 104.652 32.2627 105.287 32.648C105.921 33.0107 106.647 33.192 107.463 33.192ZM129.608 37L123.25 28.534L129.574 20.578H134.708L127.296 29.554L127.466 27.378L135.048 37H129.608ZM119.136 37V12.418H123.59V37H119.136ZM137.575 37V13.098H140.839L150.529 28.602H148.659L158.315 13.098H161.579V37H156.989V21.02L157.873 21.292L151.141 32.104H148.013L141.281 21.292L142.199 21.02V37H137.575ZM171.154 37.136L164.286 20.578H169.114L173.67 33.226H172.038L176.764 20.578H181.626L174.316 37.136H171.154ZM166.598 43.868L171.596 33.294L174.316 37.136L171.324 43.868H166.598ZM187.52 37V32.886H193.606C195.147 32.886 196.496 32.5687 197.652 31.934C198.808 31.2767 199.703 30.3587 200.338 29.18C200.995 28.0013 201.324 26.6073 201.324 24.998C201.324 23.434 200.995 22.074 200.338 20.918C199.681 19.7393 198.774 18.8327 197.618 18.198C196.462 17.5407 195.125 17.212 193.606 17.212H187.418V13.098H193.674C195.442 13.098 197.074 13.3927 198.57 13.982C200.089 14.5713 201.403 15.41 202.514 16.498C203.647 17.5633 204.52 18.8213 205.132 20.272C205.767 21.7227 206.084 23.3093 206.084 25.032C206.084 26.7547 205.767 28.3527 205.132 29.826C204.52 31.2767 203.659 32.546 202.548 33.634C201.437 34.6993 200.123 35.5267 198.604 36.116C197.108 36.7053 195.487 37 193.742 37H187.52ZM184.358 37V13.098H188.982V37H184.358ZM217.001 37.34C215.346 37.34 213.85 36.966 212.513 36.218C211.198 35.4473 210.144 34.416 209.351 33.124C208.58 31.8093 208.195 30.3473 208.195 28.738C208.195 27.1287 208.58 25.6893 209.351 24.42C210.121 23.128 211.175 22.108 212.513 21.36C213.85 20.5893 215.335 20.204 216.967 20.204C218.644 20.204 220.14 20.5893 221.455 21.36C222.792 22.108 223.846 23.128 224.617 24.42C225.387 25.6893 225.773 27.1287 225.773 28.738C225.773 30.3473 225.387 31.8093 224.617 33.124C223.846 34.416 222.792 35.4473 221.455 36.218C220.14 36.966 218.655 37.34 217.001 37.34ZM216.967 33.192C217.805 33.192 218.542 33.0107 219.177 32.648C219.834 32.2627 220.333 31.7413 220.673 31.084C221.035 30.404 221.217 29.6333 221.217 28.772C221.217 27.9107 221.035 27.1513 220.673 26.494C220.31 25.8367 219.811 25.3267 219.177 24.964C218.542 24.5787 217.805 24.386 216.967 24.386C216.151 24.386 215.425 24.5787 214.791 24.964C214.156 25.3267 213.657 25.8367 213.295 26.494C212.932 27.1513 212.751 27.9107 212.751 28.772C212.751 29.6333 212.932 30.404 213.295 31.084C213.657 31.7413 214.156 32.2627 214.791 32.648C215.425 33.0107 216.151 33.192 216.967 33.192ZM236.392 37.34C234.715 37.34 233.207 36.966 231.87 36.218C230.533 35.47 229.479 34.45 228.708 33.158C227.937 31.866 227.552 30.4153 227.552 28.806C227.552 27.174 227.937 25.712 228.708 24.42C229.479 23.128 230.533 22.108 231.87 21.36C233.23 20.5893 234.737 20.204 236.392 20.204C237.684 20.204 238.874 20.442 239.962 20.918C241.05 21.394 241.991 22.074 242.784 22.958L239.928 25.848C239.497 25.372 238.976 25.0093 238.364 24.76C237.775 24.5107 237.117 24.386 236.392 24.386C235.576 24.386 234.839 24.5787 234.182 24.964C233.547 25.3267 233.037 25.8367 232.652 26.494C232.289 27.1287 232.108 27.888 232.108 28.772C232.108 29.6333 232.289 30.404 232.652 31.084C233.037 31.7413 233.547 32.2627 234.182 32.648C234.839 33.0107 235.576 33.192 236.392 33.192C237.14 33.192 237.809 33.0673 238.398 32.818C239.01 32.546 239.531 32.1607 239.962 31.662L242.852 34.552C242.013 35.4587 241.05 36.15 239.962 36.626C238.874 37.102 237.684 37.34 236.392 37.34Z" fill="#1A1A1A"/>
</svg>
